<?xml version="1.0" encoding="UTF-8"?>
<svg width="409px" height="316px" viewBox="0 0 409 316" version="1.1" xmlns="http://www.w3.org/2000/svg" xmlns:xlink="http://www.w3.org/1999/xlink">
    <!-- Generator: Sketch 51.3 (57544) - http://www.bohemiancoding.com/sketch -->
    <title>Group</title>
    <desc>Created with Sketch.</desc>
    <defs></defs>
    <g id="Page-1" stroke="none" stroke-width="1" fill="none" fill-rule="evenodd">
        <g id="Group" transform="translate(3.000000, 0.000000)">
            <polygon id="Path-2" stroke="#979797" fill="#FFFFFF" fill-rule="nonzero" points="3.52734375 212.910156 82.78125 212.910156 93.2773437 225.947266 107.748047 233.199219 139.392578 237.605469 303.808594 237.605469 324.324219 233.199219 335.580078 220.527344 394.574219 206.660156 347.587891 225.947266 344.796875 241.363281 335.580078 258.759766 324.324219 277.550781 295.40625 301.164062 278.744141 311.529297 72.6347656 311.529297 65.2226562 298.488281 59.5195312 281.853516 54.3554687 267.552734 48.2285156 259.094727 32.9726562 252.607422 11.6269531 233.199219"></polygon>
            <path d="M2.31555199,211.214787 C2.31555199,211.214787 6.02458919,230.360815 15.9521693,239.796965 C25.8797495,249.233114 37.1688975,258.311701 49.6346155,260.579954 C65.0148944,272.510382 57.0530574,299.831125 75.3374757,311.402967 C96.315471,311.67068 276.859534,311.402967 276.859534,311.402967 C276.859534,311.402967 336.050036,286.712084 346.686291,227.22554 C374.911039,214.846743 400.313716,204.12138 400.313716,204.12138 C401.586567,203.582572 401.530141,203.406155 400.185463,203.727873 L335.922602,219.102948 C335.922602,219.102948 331.862814,227.366135 321.686246,232.083504 C316.215534,234.619464 306.946709,235.052187 300.158869,235.052187 C252.414958,235.052187 123.711017,235.052187 123.711017,235.052187 C123.711017,235.052187 89.4578703,232.472443 82.6073492,211.214787 C54.7880362,211.223811 2.31555199,211.214787 2.31555199,211.214787 Z" id="Path-3" stroke="#111D87" stroke-width="7.5"></path>
            <g id="hull" transform="translate(0.000000, 6.000000)" stroke="#111D87">
                <path d="M2.31822713,205.339082 C2.31822713,205.339082 6.03154935,224.46173 15.9705988,233.886356 C25.9096482,243.310983 37.2118384,252.378484 49.691958,254.643967 C65.0900056,266.559826 57.1189703,293.847206 75.4245125,305.404917 C96.4267436,305.672304 277.179388,305.404917 277.179388,305.404917 C277.179388,305.404917 336.438272,280.744185 347.086815,221.330283 C375.344171,208.966602 400.788936,198.24895 400.788936,198.24895 C402.056221,197.713775 401.994026,197.539985 400.647794,197.86131 L336.310691,213.21761 C336.310691,213.21761 332.246213,221.470706 322.057887,226.182315 C316.580855,228.715178 307.301322,229.147372 300.50564,229.147372 C252.706571,229.147372 123.853939,229.147372 123.853939,229.147372 C123.853939,229.147372 89.5612203,226.570779 82.7027848,205.339082 C54.8513324,205.348095 2.31822713,205.339082 2.31822713,205.339082 Z" id="Path-3" stroke-width="7.5"></path>
                <g id="trim" transform="translate(0.000000, 183.767606)" stroke-width="5">
                    <path d="M28.0598944,56.7517606 L327.322749,56.7517606" id="Line-Copy-3" stroke-linecap="square"></path>
                    <path d="M40.5788817,67.5616197 L321.925795,67.5616197" id="Line-Copy-2" stroke-linecap="square"></path>
                    <path d="M60.8694978,78.3714789 L316.515277,78.3714789" id="Line-Copy-4" stroke-linecap="square"></path>
                    <path d="M60.8537784,89.181338 L312.457389,89.181338" id="Line-Copy-5" stroke-linecap="square"></path>
                    <path d="M66.2795985,99.9911972 L305.694242,99.9911972" id="Line-Copy-6" stroke-linecap="square"></path>
                    <path d="M66.2795985,110.801056 L297.578466,110.801056" id="Line-Copy-7" stroke-linecap="square"></path>
                    <path d="M335.148275,29.5159826 C335.148275,29.5159826 336.074245,61.5853194 303.010118,101.851781" id="Path-17"></path>
                    <path d="M332.481323,48.0083369 C332.481323,48.0083369 328.630821,54.6536556 318.310417,56.0550314 L122.835538,56.0550314 C122.835538,56.0550314 81.7191571,56.6409173 67.0542243,20.5983766" id="Path-18"></path>
                    <g id="rail">
                        <polyline id="Rectangle-7" points="0 17.5660211 0 1.35123239 82.9161805 1.35123239 82.9161805 17.5660211"></polyline>
                        <path d="M10.8210351,1.35123239 L10.8210351,14.8635563" id="Line" stroke-linecap="square"></path>
                        <path d="M21.6420702,1.35123239 L21.6420702,14.8635563" id="Line-Copy" stroke-linecap="square"></path>
                        <path d="M32.4631053,1.35123239 L32.4631053,14.8635563" id="Line-Copy-8" stroke-linecap="square"></path>
                        <path d="M43.2841405,1.35123239 L43.2841405,14.8635563" id="Line-Copy-9" stroke-linecap="square"></path>
                        <path d="M56.8104343,1.35123239 L56.8104343,14.8635563" id="Line-Copy-10" stroke-linecap="square"></path>
                        <path d="M73.041987,1.35123239 L73.041987,14.8635563" id="Line-Copy-11" stroke-linecap="square"></path>
                        <path d="M62.2209519,1.35123239 L62.2209519,14.8635563" id="Line-Copy-12" stroke-linecap="square"></path>
                    </g>
                </g>
                <g id="sails" transform="translate(16.231553, 0.000000)" stroke-width="7.5">
                    <path d="M12.0980968,108.098592 C12.0980968,82.3199739 0,54.0492958 0,54.0492958 L59.5513437,54.0492958 C59.5513437,54.0492958 95.9921234,101.503105 59.5513437,162.147887 L0,162.147887 C0,162.147887 12.0980968,133.877209 12.0980968,108.098592 Z" id="Path-7" fill="#FFFFFF"></path>
                    <path d="M114.89793,154.040493 C114.89793,128.261875 102.799834,99.9911972 102.799834,99.9911972 L162.351177,99.9911972 C162.351177,99.9911972 198.791957,147.445006 162.351177,208.089788 L102.799834,208.089789 C102.799834,208.089789 114.89793,179.819111 114.89793,154.040493 Z" id="Path-7-Copy" fill="#FFFFFF"></path>
                    <path d="M107.446917,67.5616197 C107.446917,61.1169653 102.799834,54.0492958 102.799834,54.0492958 L163.952568,54.0492958 C163.952568,54.0492958 170.431303,59.7642258 170.431303,67.5616197 C170.431303,75.3590136 163.952568,81.0739436 163.952568,81.0739436 L102.799834,81.0739437 C102.799834,81.0739437 107.446917,74.0062741 107.446917,67.5616197 Z" id="Path-7-Copy-3" fill="#FFFFFF"></path>
                    <path d="M204.17147,154.040493 C204.17147,128.261875 192.073373,99.9911972 192.073373,99.9911972 L251.624717,99.9911972 C251.624717,99.9911972 288.065497,147.445006 251.624717,208.089788 L192.073373,208.089789 C192.073373,208.089789 204.17147,179.819111 204.17147,154.040493 Z" id="Path-7-Copy-2" fill="#FFFFFF"></path>
                    <path d="M231.299626,82.4251761 L231.299626,227.007042" id="Path-4"></path>
                    <path d="M142.026086,1.33505051 L142.026086,227.007042" id="Path-4-Copy"></path>
                    <path d="M39.2262523,39.1857394 L39.2262523,204.036092" id="Path-4-Copy-2"></path>
                </g>
            </g>
            <g id="ship-enlarged" transform="translate(21.000000, 0.000000)" stroke="#111D87" stroke-width="5">
                <g id="windows" transform="translate(0.334050, 221.737548)">
                    <ellipse id="Oval-5" fill="#FFFFFF" cx="96.6203073" cy="52.045977" rx="8.10434144" ry="8.13218391"></ellipse>
                    <ellipse id="Oval-5-Copy" fill="#FFFFFF" cx="134.440567" cy="52.045977" rx="8.10434144" ry="8.13218391"></ellipse>
                    <ellipse id="Oval-5-Copy-2" fill="#FFFFFF" cx="172.260827" cy="52.045977" rx="8.10434144" ry="8.13218391"></ellipse>
                    <rect id="Rectangle-2" x="3.24798133" y="3.04214559" width="13.91013" height="11.2643678"></rect>
                    <rect id="Path" x="27.5319578" y="3.04214559" width="13.91013" height="11.2643678"></rect>
                </g>
                <ellipse id="anchor-opening" fill="#FFFFFF" cx="266.04171" cy="262.127395" rx="8.30578859" ry="8.34291188"></ellipse>
                <rect id="crow's-nest" x="122.416658" y="29.6072797" width="30.1188129" height="16.6858238"></rect>
                <g id="flag" transform="translate(92.902186, 0.000000)" fill="#FFFFFF">
                    <rect id="Rectangle-5" x="24.1115772" y="2.5" width="22.0144715" height="11.2643678"></rect>
                    <path d="M4.32439508,16.4750958 L24.5144715,16.4750958 L24.5144715,5.21072797 L4.32439508,5.21072797 L7.56752623,10.8429119 L4.32439508,16.4750958 Z" id="Rectangle-5-Copy"></path>
                </g>
            </g>
        </g>
    </g>
</svg>